<svg id="svg" version="1.1" width="400" height="118.359375" xmlns="http://www.w3.org/2000/svg" xmlns:xlink="http://www.w3.org/1999/xlink" style="display: block;"><g id="svgg"><path id="path0" d="M60.205 71.333 C 60.205 71.654,60.240 71.785,60.282 71.625 C 60.323 71.465,60.323 71.202,60.282 71.042 C 60.240 70.881,60.205 71.012,60.205 71.333 M50.406 74.875 L 49.917 75.417 50.458 74.927 C 50.756 74.658,51.000 74.414,51.000 74.385 C 51.000 74.257,50.862 74.370,50.406 74.875 M60.000 113.552 C 60.000 113.581,60.244 113.825,60.542 114.094 L 61.083 114.583 60.594 114.042 C 60.138 113.537,60.000 113.423,60.000 113.552 " stroke="none" fill="#000000" fill-rule="evenodd"></path><path id="path1" d="M157.408 0.147 C 157.321 0.227,156.950 0.387,156.583 0.501 C 154.685 1.093,151.301 4.034,150.333 5.933 C 150.104 6.382,149.873 6.787,149.820 6.833 C 149.766 6.879,149.588 7.329,149.425 7.833 C 149.261 8.337,149.066 8.871,148.992 9.020 C 148.455 10.099,148.458 15.260,148.996 16.313 C 149.071 16.462,149.269 17.015,149.435 17.542 L 149.736 18.501 148.960 19.292 C 148.533 19.727,147.424 20.857,146.496 21.802 C 144.352 23.986,144.351 23.918,146.526 26.434 C 147.389 27.433,148.339 28.605,148.637 29.039 C 149.784 30.708,149.984 30.634,153.213 27.339 C 155.670 24.833,156.667 24.103,156.667 24.809 C 156.667 25.195,159.279 25.734,161.404 25.787 C 165.645 25.893,169.268 24.296,171.917 21.154 C 172.511 20.450,173.499 18.922,173.499 18.708 C 173.500 18.594,173.564 18.500,173.643 18.500 C 174.336 18.500,175.445 11.212,174.844 10.610 C 174.746 10.513,174.667 10.210,174.667 9.938 C 174.667 8.791,172.835 4.833,172.305 4.833 C 172.218 4.833,172.192 4.760,172.248 4.670 C 172.558 4.169,168.892 1.286,166.917 0.478 L 165.750 0.001 161.658 0.001 C 159.408 0.000,157.495 0.066,157.408 0.147 M163.844 7.933 C 168.931 10.363,167.028 18.316,161.487 17.780 C 160.225 17.658,159.500 17.488,159.500 17.314 C 159.500 17.233,159.406 17.165,159.292 17.162 C 158.899 17.154,157.686 15.877,157.176 14.935 C 154.942 10.805,159.605 5.909,163.844 7.933 M45.250 58.170 C 43.802 58.362,42.279 58.762,41.530 59.146 C 41.330 59.249,41.035 59.395,40.875 59.471 C 39.349 60.189,36.167 62.934,36.167 63.532 C 36.167 63.632,36.062 63.797,35.935 63.898 C 35.597 64.168,34.761 65.797,34.514 66.667 C 34.397 67.079,34.234 67.545,34.153 67.702 C 33.771 68.440,33.626 72.246,33.917 73.933 C 34.003 74.435,33.949 74.486,31.794 75.916 C 30.578 76.723,29.508 77.466,29.416 77.567 C 29.324 77.667,29.174 77.763,29.083 77.778 C 28.991 77.793,27.079 79.026,24.833 80.518 C 20.659 83.290,20.383 83.419,19.770 82.865 C 19.369 82.503,17.333 81.452,17.333 81.606 C 17.333 81.662,17.232 81.623,17.107 81.520 C 16.496 81.013,10.754 80.580,9.922 80.978 C 9.736 81.067,9.300 81.179,8.953 81.227 C 5.979 81.638,1.938 85.158,0.450 88.636 L 0.000 89.689 0.000 94.013 C 0.000 96.392,0.066 98.468,0.146 98.627 C 0.227 98.786,0.503 99.385,0.760 99.958 C 1.018 100.531,1.277 101.000,1.337 101.000 C 1.397 101.000,1.529 101.181,1.630 101.403 C 2.426 103.150,6.581 106.203,8.815 106.682 C 9.146 106.753,9.717 106.886,10.083 106.978 C 11.628 107.365,15.211 107.115,16.917 106.502 C 19.400 105.609,23.264 102.581,23.593 101.270 C 23.653 101.030,23.773 100.833,23.860 100.833 C 23.946 100.833,24.128 100.552,24.264 100.208 C 24.400 99.865,24.654 99.283,24.829 98.917 C 25.721 97.038,26.070 93.575,25.593 91.325 L 25.467 90.734 28.692 88.596 C 30.466 87.419,32.135 86.305,32.403 86.120 C 34.786 84.466,38.591 82.000,38.761 82.000 C 38.971 82.000,40.006 82.498,40.167 82.676 C 40.428 82.966,42.227 83.637,44.348 84.237 C 45.578 84.584,48.457 84.592,49.276 84.250 C 49.605 84.112,49.897 84.000,49.926 84.000 C 49.954 84.000,50.406 84.619,50.931 85.375 C 51.456 86.131,51.967 86.826,52.067 86.920 C 52.168 87.013,52.353 87.276,52.478 87.503 C 52.749 87.993,55.588 92.023,56.585 93.333 C 56.969 93.837,57.369 94.413,57.474 94.612 C 57.579 94.811,57.759 95.074,57.874 95.195 C 57.989 95.317,58.367 95.851,58.715 96.382 L 59.346 97.347 59.012 97.816 C 57.182 100.387,56.523 104.695,57.431 108.160 C 57.658 109.027,57.905 109.777,57.980 109.827 C 58.054 109.876,58.166 110.123,58.228 110.375 C 58.289 110.627,58.418 110.833,58.513 110.833 C 58.608 110.833,58.646 110.899,58.596 110.979 C 58.366 111.352,60.556 114.111,61.923 115.169 C 63.165 116.131,63.500 116.356,63.503 116.228 C 63.504 116.148,63.560 116.170,63.628 116.275 C 63.853 116.628,65.664 117.364,67.436 117.823 C 68.225 118.027,72.667 118.066,72.667 117.869 C 72.667 117.797,72.873 117.720,73.125 117.698 C 74.067 117.617,75.500 117.180,75.500 116.974 C 75.500 116.896,75.608 116.833,75.740 116.833 C 76.580 116.833,81.000 113.279,81.000 112.604 C 81.000 112.515,81.114 112.317,81.252 112.164 C 81.629 111.748,82.500 109.983,82.500 109.636 C 82.500 109.470,82.558 109.333,82.630 109.333 C 83.500 109.333,83.588 103.160,82.752 100.750 C 82.434 99.833,82.172 99.030,82.170 98.965 C 82.168 98.900,83.407 97.629,84.923 96.141 C 87.909 93.208,88.102 92.859,87.115 92.167 C 86.771 91.925,85.055 90.577,84.458 90.080 C 84.298 89.946,84.167 89.861,84.167 89.891 C 84.167 89.920,83.692 89.469,83.111 88.889 C 81.549 87.327,81.504 87.339,78.649 90.031 C 75.505 92.996,75.756 92.833,74.886 92.472 C 73.115 91.739,68.533 91.409,67.062 91.908 C 66.752 92.013,66.540 91.788,65.398 90.139 C 64.679 89.100,63.998 88.138,63.885 88.000 C 63.772 87.862,63.395 87.334,63.048 86.826 C 62.701 86.318,61.742 84.949,60.917 83.783 C 60.092 82.618,59.030 81.105,58.558 80.421 L 57.699 79.178 58.391 77.787 C 59.230 76.101,59.419 75.638,59.667 74.667 C 59.772 74.254,59.928 73.645,60.012 73.314 C 60.222 72.494,60.207 69.944,59.988 69.103 C 59.889 68.725,59.734 68.117,59.644 67.750 C 59.416 66.826,58.942 65.668,58.792 65.667 C 58.723 65.667,58.667 65.553,58.667 65.414 C 58.667 64.660,56.757 62.219,55.102 60.858 C 54.307 60.205,53.127 59.505,52.976 59.598 C 52.897 59.647,52.833 59.625,52.833 59.551 C 52.833 58.777,47.709 57.844,45.250 58.170 M48.967 66.536 C 53.899 68.844,52.323 76.500,46.915 76.500 C 45.205 76.500,42.922 75.088,42.334 73.667 C 42.220 73.392,42.068 73.167,41.997 73.167 C 41.883 73.167,41.676 72.028,41.663 71.333 C 41.600 67.729,45.725 65.019,48.967 66.536 M14.112 89.099 C 16.302 89.735,18.236 92.571,17.756 94.441 C 17.689 94.703,17.602 95.092,17.561 95.306 C 17.396 96.186,16.617 97.341,15.775 97.953 C 15.303 98.297,14.892 98.636,14.861 98.707 C 14.830 98.777,14.740 98.795,14.660 98.746 C 14.580 98.696,14.240 98.771,13.904 98.911 C 12.380 99.548,10.180 98.916,8.819 97.450 C 5.236 93.593,9.022 87.619,14.112 89.099 M72.000 100.064 C 72.412 100.217,72.821 100.359,72.907 100.379 C 73.949 100.627,75.333 103.182,75.333 104.858 C 75.333 109.841,68.943 111.869,66.008 107.818 C 63.050 103.734,67.247 98.302,72.000 100.064 " stroke="none" fill="#969696" fill-rule="evenodd"></path><path id="path2" d="M175.058 12.667 C 175.058 13.446,175.087 13.765,175.122 13.375 C 175.157 12.985,175.157 12.348,175.122 11.958 C 175.087 11.569,175.058 11.887,175.058 12.667 M148.381 12.583 C 148.382 13.042,148.415 13.209,148.453 12.956 C 148.491 12.703,148.490 12.328,148.451 12.123 C 148.411 11.918,148.380 12.125,148.381 12.583 M108.273 13.750 C 107.978 13.905,107.337 14.000,106.598 14.000 C 105.939 14.000,105.329 14.068,105.242 14.151 C 105.155 14.235,104.708 14.340,104.250 14.385 C 103.296 14.479,101.754 14.857,101.569 15.042 C 101.501 15.110,101.199 15.167,100.899 15.167 C 100.599 15.167,100.307 15.242,100.250 15.333 C 100.193 15.425,100.004 15.500,99.829 15.500 C 99.654 15.500,99.228 15.623,98.881 15.773 C 98.534 15.923,98.100 16.101,97.917 16.167 C 97.598 16.283,97.186 16.454,96.083 16.928 C 93.521 18.029,89.678 20.137,89.528 20.524 C 89.497 20.602,89.396 20.667,89.303 20.667 C 89.120 20.667,86.843 22.240,86.167 22.834 C 85.938 23.035,85.342 23.549,84.844 23.975 C 81.943 26.456,78.870 30.059,76.714 33.506 C 75.103 36.082,73.000 40.449,73.000 41.220 C 73.000 41.374,72.928 41.500,72.841 41.500 C 72.753 41.500,72.632 41.763,72.572 42.085 C 72.512 42.407,72.396 42.711,72.314 42.762 C 72.233 42.812,72.167 43.012,72.167 43.206 C 72.167 43.401,72.095 43.790,72.008 44.072 C 71.235 46.558,70.977 47.560,71.044 47.816 C 71.087 47.981,71.022 48.296,70.900 48.516 C 70.777 48.740,70.676 49.436,70.673 50.092 C 70.669 50.802,70.584 51.349,70.458 51.475 C 70.166 51.767,70.160 60.271,70.452 60.850 C 70.564 61.070,70.689 61.775,70.731 62.417 C 70.845 64.142,71.123 65.567,71.642 67.083 C 71.736 67.358,71.887 67.883,71.978 68.250 C 72.345 69.728,72.706 70.838,72.849 70.926 C 72.932 70.978,73.000 71.198,73.000 71.417 C 73.000 71.635,73.075 71.860,73.167 71.917 C 73.258 71.973,73.333 72.127,73.333 72.257 C 73.333 72.520,74.948 76.022,75.134 76.162 C 75.198 76.210,75.360 76.475,75.493 76.750 C 75.903 77.597,77.064 79.571,77.289 79.805 C 77.406 79.926,77.584 80.179,77.684 80.366 C 77.857 80.690,79.302 82.658,79.495 82.833 C 79.546 82.879,80.093 83.517,80.711 84.250 C 82.223 86.044,83.614 87.398,86.089 89.486 C 87.526 90.698,90.705 92.822,92.167 93.545 C 92.579 93.750,92.954 93.955,93.000 94.002 C 93.088 94.093,94.374 94.716,95.958 95.435 C 96.485 95.674,97.047 95.937,97.206 96.018 C 97.365 96.100,97.610 96.167,97.750 96.167 C 97.890 96.167,98.135 96.233,98.294 96.313 C 99.116 96.728,99.887 97.000,100.246 97.000 C 100.466 97.000,100.688 97.067,100.739 97.149 C 100.790 97.231,101.113 97.339,101.457 97.389 C 102.142 97.488,103.769 97.882,104.167 98.045 C 104.304 98.101,104.754 98.185,105.167 98.231 C 105.579 98.276,106.367 98.365,106.917 98.427 C 107.467 98.490,108.022 98.625,108.151 98.729 C 108.500 99.009,117.410 98.990,117.692 98.708 C 117.806 98.594,118.204 98.499,118.575 98.497 C 119.191 98.494,120.088 98.347,122.667 97.826 C 123.171 97.724,123.655 97.572,123.742 97.487 C 123.829 97.403,124.181 97.333,124.523 97.333 C 124.866 97.333,125.193 97.258,125.250 97.167 C 125.307 97.075,125.559 97.000,125.810 97.000 C 126.061 97.000,126.338 96.935,126.425 96.856 C 126.512 96.777,127.183 96.508,127.917 96.257 C 129.035 95.876,133.450 93.797,134.583 93.119 C 135.965 92.292,138.000 90.911,138.000 90.801 C 138.000 90.727,138.077 90.667,138.170 90.667 C 138.264 90.667,138.832 90.280,139.432 89.809 L 140.524 88.950 140.862 89.288 C 141.304 89.730,141.106 90.119,139.865 91.250 C 139.283 91.781,138.807 92.408,138.553 92.978 C 137.817 94.628,137.238 93.935,150.150 106.875 L 161.583 118.333 163.291 118.333 L 164.999 118.333 170.563 112.792 C 177.008 106.373,177.219 106.071,176.396 104.450 C 176.032 103.733,153.333 81.055,152.762 80.838 C 151.487 80.353,150.452 80.682,149.191 81.975 C 148.368 82.819,147.707 83.333,147.447 83.333 C 147.405 83.333,147.246 83.141,147.092 82.907 C 146.814 82.483,146.824 82.464,148.555 79.865 C 149.514 78.427,150.457 76.912,150.652 76.500 C 150.847 76.087,151.078 75.637,151.166 75.500 C 151.412 75.118,152.633 72.305,153.102 71.041 C 153.748 69.303,154.500 66.778,154.500 66.348 C 154.500 66.193,154.568 65.995,154.651 65.908 C 154.735 65.821,154.848 65.337,154.904 64.833 C 155.181 62.337,155.316 61.353,155.477 60.667 C 155.701 59.708,155.701 52.849,155.477 51.750 C 155.383 51.292,155.242 50.354,155.162 49.667 C 154.900 47.394,154.414 45.040,154.149 44.758 C 154.067 44.671,154.000 44.357,154.000 44.060 C 154.000 43.763,153.925 43.473,153.833 43.417 C 153.742 43.360,153.667 43.187,153.667 43.032 C 153.667 42.877,153.471 42.262,153.231 41.667 C 152.991 41.071,152.734 40.433,152.661 40.250 C 151.867 38.267,150.024 34.622,149.729 34.450 C 149.603 34.377,149.500 34.216,149.500 34.094 C 149.500 33.314,144.819 27.333,142.750 25.469 C 142.383 25.138,141.526 24.365,140.844 23.751 C 140.162 23.136,139.412 22.512,139.177 22.364 C 138.942 22.216,138.455 21.849,138.095 21.548 C 137.735 21.246,137.341 21.000,137.220 21.000 C 137.099 21.000,137.000 20.925,137.000 20.833 C 137.000 20.742,136.894 20.667,136.764 20.667 C 136.634 20.667,136.503 20.610,136.472 20.541 C 136.373 20.315,134.285 19.046,132.750 18.277 C 131.406 17.604,130.825 17.336,129.083 16.585 C 127.966 16.103,127.167 15.843,127.164 15.960 C 127.163 16.028,127.099 15.984,127.022 15.863 C 126.893 15.659,126.603 15.560,125.000 15.169 C 124.679 15.091,124.004 14.900,123.500 14.745 C 122.996 14.590,122.220 14.433,121.777 14.396 C 121.333 14.359,120.832 14.255,120.663 14.165 C 120.494 14.074,119.840 14.000,119.211 14.000 C 118.518 14.000,117.985 13.918,117.859 13.792 C 117.522 13.455,108.908 13.418,108.273 13.750 M116.667 21.087 C 117.537 21.139,118.486 21.291,118.775 21.424 C 119.064 21.558,119.457 21.667,119.648 21.667 C 120.092 21.667,121.495 21.994,121.873 22.186 C 122.032 22.267,122.336 22.333,122.548 22.333 C 122.760 22.333,123.005 22.393,123.092 22.466 C 123.179 22.539,123.700 22.734,124.250 22.899 C 124.800 23.065,125.380 23.267,125.539 23.350 C 125.699 23.432,125.980 23.500,126.164 23.500 C 126.349 23.500,126.500 23.575,126.500 23.667 C 126.500 23.758,126.594 23.834,126.708 23.834 C 126.823 23.834,127.286 24.022,127.737 24.251 C 128.188 24.479,128.656 24.667,128.778 24.667 C 128.900 24.667,129.000 24.723,129.000 24.792 C 129.001 24.860,129.432 25.139,129.959 25.410 C 130.486 25.682,130.954 25.954,131.000 26.015 C 131.046 26.075,131.346 26.266,131.667 26.438 C 132.309 26.782,132.677 27.034,134.259 28.210 C 136.752 30.064,140.142 33.517,141.450 35.536 C 141.705 35.929,141.963 36.287,142.024 36.333 C 142.231 36.489,144.434 40.247,144.662 40.833 C 144.787 41.154,144.941 41.492,145.005 41.583 C 145.069 41.675,145.170 41.956,145.230 42.208 C 145.290 42.460,145.413 42.667,145.503 42.667 C 145.593 42.667,145.667 42.850,145.667 43.073 C 145.667 43.297,145.742 43.527,145.833 43.583 C 145.925 43.640,146.000 43.865,146.000 44.083 C 146.000 44.302,146.075 44.527,146.167 44.583 C 146.258 44.640,146.334 44.813,146.334 44.968 C 146.335 45.123,146.447 45.465,146.584 45.727 C 146.721 45.990,146.833 46.347,146.833 46.521 C 146.833 46.695,146.899 46.968,146.980 47.127 C 147.172 47.505,147.500 48.908,147.500 49.352 C 147.500 49.543,147.609 49.936,147.742 50.225 C 148.355 51.556,148.351 61.359,147.737 62.235 C 147.607 62.422,147.500 62.744,147.500 62.951 C 147.500 63.365,147.199 64.722,146.990 65.250 C 146.918 65.433,146.821 65.771,146.776 66.000 C 145.892 70.463,141.509 77.650,137.229 81.657 C 136.507 82.333,135.935 82.949,135.958 83.026 C 135.981 83.103,135.931 83.148,135.848 83.125 C 135.764 83.102,135.370 83.351,134.973 83.678 C 133.965 84.508,130.543 86.755,129.654 87.171 C 129.249 87.361,128.595 87.695,128.203 87.914 C 127.810 88.133,127.435 88.326,127.369 88.342 C 127.159 88.397,126.428 88.669,126.083 88.821 C 125.900 88.901,125.300 89.129,124.750 89.327 C 124.200 89.524,123.538 89.794,123.278 89.926 C 123.019 90.058,122.592 90.167,122.330 90.167 C 122.068 90.167,121.807 90.242,121.750 90.333 C 121.693 90.425,121.318 90.500,120.917 90.500 C 120.515 90.500,120.146 90.565,120.097 90.644 C 120.048 90.723,119.476 90.826,118.826 90.873 C 118.175 90.919,117.558 91.042,117.455 91.145 C 117.200 91.400,108.810 91.410,108.555 91.155 C 108.457 91.057,107.786 90.905,107.064 90.816 C 104.815 90.541,104.422 90.471,104.258 90.316 C 104.171 90.234,103.868 90.167,103.583 90.167 C 103.299 90.167,102.995 90.102,102.908 90.023 C 102.821 89.944,102.150 89.675,101.417 89.425 C 100.255 89.030,98.927 88.476,97.961 87.981 C 97.801 87.900,97.558 87.833,97.419 87.833 C 97.280 87.833,97.167 87.772,97.167 87.696 C 97.167 87.620,96.698 87.344,96.125 87.082 C 95.552 86.821,95.046 86.563,95.000 86.510 C 94.954 86.457,94.579 86.196,94.167 85.929 C 91.780 84.389,87.733 80.955,86.589 79.500 C 86.409 79.271,86.220 79.046,86.169 79.000 C 85.655 78.538,82.833 74.566,82.833 74.304 C 82.833 74.218,82.758 74.193,82.667 74.250 C 82.575 74.307,82.501 74.255,82.501 74.135 C 82.502 74.015,82.022 72.942,81.435 71.750 C 80.161 69.163,79.970 68.720,79.571 67.417 C 79.403 66.867,79.205 66.345,79.132 66.258 C 79.060 66.171,79.000 65.857,79.000 65.560 C 79.000 65.263,78.935 64.979,78.855 64.930 C 78.775 64.881,78.664 64.482,78.608 64.045 C 78.552 63.608,78.378 62.650,78.223 61.917 C 77.997 60.857,77.939 59.695,77.940 56.250 C 77.940 51.900,77.956 51.723,78.664 48.333 C 78.750 47.921,78.867 47.321,78.924 47.000 C 78.981 46.679,79.134 46.180,79.264 45.891 C 79.394 45.603,79.500 45.283,79.500 45.181 C 79.500 45.079,79.566 44.865,79.646 44.706 C 79.727 44.547,79.885 44.117,79.998 43.750 C 80.529 42.027,83.853 36.045,84.880 34.967 C 84.993 34.848,85.584 34.150,86.192 33.417 C 88.698 30.397,92.946 26.932,96.208 25.247 C 96.552 25.069,96.833 24.866,96.833 24.795 C 96.833 24.725,96.947 24.667,97.086 24.667 C 97.224 24.667,97.468 24.598,97.627 24.514 C 98.205 24.209,99.138 23.833,99.317 23.833 C 99.418 23.833,99.500 23.758,99.500 23.667 C 99.500 23.575,99.673 23.500,99.883 23.500 C 100.094 23.500,100.338 23.437,100.425 23.359 C 100.512 23.282,101.033 23.084,101.583 22.920 C 102.133 22.755,102.658 22.566,102.750 22.498 C 102.842 22.430,103.142 22.333,103.417 22.281 C 103.692 22.229,104.254 22.107,104.667 22.010 C 105.079 21.912,105.829 21.759,106.333 21.668 C 106.836 21.578,107.274 21.428,107.305 21.335 C 107.338 21.237,108.035 21.166,108.972 21.164 C 109.858 21.163,110.696 21.087,110.833 20.995 C 111.073 20.835,112.942 20.864,116.667 21.087 M362.500 23.160 C 362.271 23.233,361.746 23.391,361.333 23.511 C 359.123 24.155,356.558 26.033,355.399 27.857 C 354.199 29.744,353.002 32.985,353.028 34.275 C 353.036 34.671,352.953 35.210,352.845 35.472 C 352.623 36.007,352.693 39.575,352.965 41.667 C 353.159 43.154,354.026 45.834,354.594 46.705 C 354.817 47.047,355.000 47.399,355.000 47.488 C 355.000 47.946,357.684 50.814,358.125 50.827 C 358.240 50.831,358.333 50.898,358.333 50.976 C 358.333 51.154,359.940 52.000,360.277 52.000 C 360.413 52.000,360.636 52.112,360.774 52.250 C 360.911 52.387,361.266 52.500,361.562 52.500 C 361.858 52.500,362.178 52.578,362.274 52.674 C 362.696 53.096,369.162 52.711,370.083 52.210 C 370.267 52.110,370.717 51.898,371.083 51.740 C 372.981 50.919,376.321 47.397,376.331 46.207 C 376.332 46.091,376.473 45.678,376.643 45.290 C 377.642 43.012,377.709 42.586,377.783 38.128 C 377.832 35.118,377.797 34.245,377.612 33.878 C 377.484 33.624,377.412 33.323,377.453 33.209 C 377.556 32.921,376.844 30.833,376.643 30.833 C 376.554 30.833,376.525 30.760,376.581 30.671 C 376.882 30.183,374.574 26.613,373.381 25.721 C 373.034 25.462,372.624 25.137,372.470 25.000 C 372.217 24.775,371.926 24.616,370.500 23.926 C 370.271 23.815,369.746 23.628,369.333 23.510 C 368.921 23.391,368.366 23.228,368.100 23.147 C 367.506 22.966,363.074 22.976,362.500 23.160 M192.667 23.833 C 192.206 24.294,192.135 51.476,192.593 52.130 C 192.993 52.701,197.007 52.701,197.407 52.130 C 197.636 51.803,197.667 50.402,197.667 40.302 L 197.667 28.845 203.764 28.798 C 211.025 28.741,210.333 29.021,210.333 26.135 C 210.333 23.208,211.332 23.500,201.333 23.500 C 193.222 23.500,192.991 23.509,192.667 23.833 M213.204 23.759 L 212.833 24.019 212.833 37.998 C 212.833 50.483,212.861 52.004,213.095 52.238 C 213.529 52.672,230.663 52.631,231.058 52.195 C 231.448 51.764,231.461 48.090,231.074 47.537 L 230.814 47.167 224.574 47.167 L 218.333 47.167 218.333 43.250 L 218.333 39.333 222.148 39.333 C 227.023 39.333,226.696 39.534,226.631 36.585 L 226.583 34.419 226.083 34.313 C 225.808 34.254,223.952 34.197,221.958 34.186 L 218.333 34.167 218.333 31.500 L 218.333 28.833 224.344 28.833 C 231.869 28.833,231.328 29.040,231.328 26.167 C 231.328 24.064,231.291 23.936,230.611 23.677 C 229.783 23.363,213.662 23.439,213.204 23.759 M236.250 23.699 C 236.067 23.803,235.862 23.970,235.794 24.069 C 235.562 24.412,235.647 51.535,235.882 52.000 C 236.089 52.409,236.131 52.417,238.338 52.464 C 241.458 52.531,241.167 53.241,241.167 45.565 L 241.167 39.333 246.333 39.333 L 251.500 39.333 251.500 45.717 C 251.500 50.459,251.551 52.151,251.700 52.300 C 252.107 52.707,256.269 52.565,256.570 52.135 C 256.847 51.740,256.979 24.471,256.707 24.067 C 256.416 23.635,255.771 23.500,254.000 23.500 C 251.243 23.500,251.500 22.935,251.500 29.006 L 251.500 34.167 246.333 34.167 L 241.167 34.167 241.164 29.208 C 241.161 24.072,241.154 24.008,240.553 23.692 C 240.078 23.442,236.693 23.448,236.250 23.699 M262.909 23.941 L 262.500 24.382 262.500 37.850 C 262.500 51.448,262.521 51.978,263.080 52.369 C 263.474 52.645,280.454 52.522,280.735 52.241 C 281.049 51.928,281.124 48.043,280.827 47.489 C 280.662 47.179,280.413 47.167,274.327 47.167 L 268.000 47.167 268.000 43.250 L 268.000 39.333 271.905 39.333 C 276.713 39.333,276.333 39.563,276.333 36.651 L 276.333 34.492 275.906 34.329 C 275.671 34.240,273.796 34.167,271.739 34.167 L 268.000 34.167 268.000 31.500 L 268.000 28.833 274.042 28.831 C 281.602 28.828,280.917 29.093,280.917 26.167 C 280.917 23.208,281.945 23.505,271.700 23.502 L 263.317 23.500 262.909 23.941 M285.875 23.746 L 285.500 24.019 285.500 37.998 C 285.500 54.401,285.154 52.501,288.137 52.497 C 291.174 52.494,291.000 52.839,291.000 46.822 L 291.000 42.333 292.375 42.326 C 295.743 42.307,297.060 42.154,297.964 41.679 C 298.121 41.596,298.512 41.414,298.833 41.274 C 303.553 39.216,305.354 31.514,302.152 27.082 C 301.126 25.662,298.935 24.167,297.880 24.167 C 297.664 24.167,297.292 24.038,297.052 23.881 C 296.396 23.451,286.446 23.331,285.875 23.746 M313.738 23.945 C 313.511 24.190,313.284 24.584,313.232 24.820 C 313.127 25.306,312.892 26.013,312.589 26.750 C 312.293 27.469,312.067 28.144,311.836 29.000 C 311.724 29.412,311.528 29.949,311.400 30.192 C 311.271 30.436,311.167 30.788,311.167 30.974 C 311.167 31.161,311.092 31.360,311.000 31.417 C 310.908 31.473,310.833 31.736,310.833 32.000 C 310.833 32.264,310.758 32.527,310.667 32.583 C 310.575 32.640,310.500 32.854,310.500 33.060 C 310.500 33.265,310.437 33.505,310.359 33.592 C 310.282 33.679,310.017 34.387,309.770 35.167 C 309.524 35.946,309.255 36.733,309.173 36.917 C 309.091 37.100,308.820 37.887,308.571 38.667 C 308.323 39.446,308.024 40.308,307.908 40.583 C 307.791 40.858,307.604 41.421,307.492 41.833 C 307.112 43.233,306.952 43.749,306.745 44.250 C 306.631 44.525,306.334 45.350,306.085 46.083 C 305.835 46.817,305.478 47.867,305.291 48.417 C 305.104 48.967,304.773 49.911,304.554 50.516 C 303.901 52.323,304.131 52.500,307.130 52.500 C 309.446 52.500,309.833 52.363,309.833 51.542 C 309.833 51.350,309.940 50.981,310.071 50.722 C 310.201 50.462,310.400 49.913,310.511 49.500 C 310.725 48.711,310.971 47.955,311.593 46.167 L 311.970 45.083 316.608 45.083 C 321.114 45.083,321.247 45.093,321.306 45.417 C 321.339 45.600,321.462 45.975,321.578 46.250 C 321.695 46.525,321.885 47.087,322.000 47.500 C 322.262 48.438,322.657 49.645,322.845 50.083 C 322.923 50.267,323.112 50.813,323.264 51.297 C 323.417 51.781,323.678 52.250,323.843 52.339 C 324.247 52.555,328.270 52.546,328.678 52.327 C 329.073 52.116,329.126 50.983,328.758 50.615 C 328.625 50.482,328.560 50.329,328.614 50.275 C 328.704 50.184,328.612 49.891,328.080 48.583 C 327.968 48.308,327.782 47.746,327.667 47.333 C 327.431 46.492,327.032 45.254,326.833 44.750 C 326.761 44.567,326.549 43.929,326.363 43.333 C 325.752 41.386,324.977 39.253,324.820 39.092 C 324.736 39.005,324.667 38.765,324.667 38.560 C 324.667 38.354,324.592 38.140,324.500 38.083 C 324.408 38.027,324.333 37.821,324.333 37.627 C 324.333 37.200,324.052 36.257,323.733 35.611 C 323.605 35.352,323.500 35.000,323.500 34.830 C 323.500 34.659,323.425 34.473,323.333 34.417 C 323.242 34.360,323.167 34.098,323.167 33.833 C 323.167 33.569,323.092 33.307,323.000 33.250 C 322.908 33.193,322.833 33.032,322.833 32.890 C 322.833 32.749,322.732 32.397,322.608 32.109 C 322.484 31.820,322.214 31.058,322.009 30.417 C 321.804 29.775,321.530 29.084,321.401 28.881 C 321.272 28.678,321.167 28.363,321.167 28.180 C 321.167 27.998,321.097 27.677,321.012 27.466 C 320.926 27.256,320.812 26.874,320.757 26.618 C 320.702 26.362,320.591 26.194,320.511 26.243 C 320.430 26.293,320.402 26.189,320.449 26.012 C 320.495 25.835,320.418 25.479,320.277 25.220 C 320.137 24.962,319.980 24.551,319.929 24.308 C 319.727 23.352,314.568 23.050,313.738 23.945 M328.958 23.762 L 328.500 24.011 328.500 26.168 L 328.500 28.325 328.992 28.579 C 329.392 28.786,330.216 28.833,333.408 28.833 L 337.333 28.833 337.333 40.333 C 337.333 54.043,336.974 52.500,340.169 52.500 L 342.338 52.500 342.668 51.958 C 342.989 51.432,342.999 51.088,342.999 40.125 L 343.000 28.833 346.875 28.831 C 351.929 28.828,351.570 29.023,351.631 26.245 C 351.676 24.205,351.659 24.067,351.321 23.792 C 350.815 23.379,329.716 23.351,328.958 23.762 M382.833 23.716 L 382.417 23.926 382.374 37.950 C 382.324 54.418,381.978 52.500,385.000 52.500 C 387.924 52.500,387.667 53.016,387.667 47.155 L 387.667 42.333 389.125 42.326 C 392.570 42.307,393.870 42.160,394.797 41.682 C 394.955 41.601,395.402 41.403,395.792 41.242 C 396.181 41.081,396.500 40.902,396.500 40.844 C 396.500 40.786,396.714 40.612,396.976 40.457 C 397.810 39.965,398.822 38.786,399.420 37.612 L 400.000 36.473 400.003 32.612 L 400.005 28.750 399.544 27.857 C 399.023 26.848,397.385 25.239,396.403 24.773 C 396.044 24.603,395.620 24.396,395.461 24.315 C 395.301 24.233,394.951 24.167,394.683 24.167 C 394.414 24.167,394.167 24.083,394.133 23.981 C 393.977 23.515,383.707 23.274,382.833 23.716 M368.023 28.716 C 370.156 29.660,372.167 32.861,372.167 35.314 C 372.167 35.795,372.250 36.344,372.352 36.535 C 372.454 36.725,372.537 37.347,372.537 37.917 C 372.537 38.486,372.454 39.108,372.352 39.299 C 372.250 39.489,372.167 40.076,372.167 40.602 C 372.167 42.858,370.304 46.162,368.571 46.981 C 368.303 47.107,367.903 47.295,367.683 47.397 C 366.888 47.767,363.520 47.632,362.583 47.193 C 361.526 46.697,359.840 44.983,359.443 44.000 C 359.276 43.587,359.034 43.038,358.903 42.778 C 358.773 42.519,358.667 42.120,358.667 41.892 C 358.667 41.664,358.593 41.341,358.503 41.173 C 358.274 40.744,358.261 35.173,358.488 34.945 C 358.586 34.847,358.667 34.521,358.667 34.220 C 358.667 32.566,360.794 29.544,362.500 28.775 C 364.094 28.056,366.474 28.031,368.023 28.716 M295.029 28.866 C 297.521 29.424,298.642 31.313,298.078 34.000 C 297.926 34.724,296.884 36.333,296.567 36.333 C 296.439 36.333,296.333 36.408,296.333 36.500 C 296.333 36.592,296.198 36.667,296.033 36.667 C 295.868 36.667,295.650 36.750,295.548 36.852 C 295.441 36.959,294.441 37.075,293.181 37.126 L 291.000 37.215 291.000 32.941 L 291.000 28.667 292.571 28.667 C 293.434 28.667,294.541 28.756,295.029 28.866 M392.051 28.910 C 393.520 29.261,394.574 30.069,394.764 30.990 C 394.813 31.225,394.925 31.717,395.015 32.083 C 395.123 32.527,395.119 32.945,395.005 33.332 C 394.911 33.652,394.831 34.102,394.829 34.332 C 394.824 34.881,393.852 36.189,393.236 36.478 C 392.969 36.603,392.604 36.782,392.425 36.875 C 392.246 36.968,391.102 37.083,389.883 37.129 L 387.667 37.214 387.667 32.940 L 387.667 28.667 389.375 28.673 C 390.315 28.676,391.519 28.783,392.051 28.910 M317.315 33.250 C 317.396 33.433,317.555 33.921,317.669 34.333 C 317.909 35.201,318.308 36.435,318.505 36.917 C 318.580 37.100,318.685 37.456,318.740 37.708 C 318.795 37.960,318.911 38.167,318.998 38.167 C 319.085 38.167,319.114 38.276,319.063 38.410 C 319.011 38.544,319.083 38.882,319.222 39.160 L 319.474 39.667 316.654 39.667 C 314.599 39.667,313.833 39.613,313.833 39.470 C 313.833 39.272,314.102 38.366,314.343 37.750 C 314.415 37.567,314.600 37.042,314.755 36.583 C 314.909 36.125,315.092 35.600,315.161 35.417 C 315.588 34.288,316.056 32.851,316.125 32.456 C 316.169 32.203,316.271 31.955,316.353 31.905 C 316.434 31.855,316.505 31.612,316.510 31.365 C 316.518 31.051,316.618 31.216,316.844 31.917 C 317.022 32.467,317.233 33.067,317.315 33.250 M268.417 61.500 C 268.360 61.592,268.005 61.667,267.627 61.667 C 267.249 61.667,266.710 61.737,266.428 61.822 C 266.147 61.907,265.579 62.071,265.167 62.184 C 264.754 62.298,264.229 62.482,264.000 62.592 C 262.234 63.444,261.667 63.755,261.667 63.869 C 261.667 63.941,261.573 64.002,261.458 64.004 C 261.153 64.011,259.828 65.271,259.966 65.423 C 260.031 65.495,260.000 65.506,259.898 65.448 C 259.284 65.097,256.488 69.642,256.237 71.399 C 256.199 71.664,256.099 71.964,256.015 72.066 C 255.555 72.620,255.167 77.893,255.474 79.417 C 255.566 79.875,255.724 80.662,255.826 81.167 C 256.192 82.989,256.287 83.290,256.904 84.593 C 258.414 87.779,260.448 89.834,263.500 91.256 C 263.821 91.406,264.214 91.597,264.373 91.681 C 264.532 91.765,264.798 91.833,264.964 91.833 C 265.131 91.833,265.344 91.911,265.439 92.006 C 266.215 92.782,276.213 92.779,276.472 92.002 C 276.502 91.909,276.662 91.833,276.825 91.833 C 277.297 91.833,278.890 91.147,279.188 90.816 C 279.337 90.650,279.499 90.554,279.547 90.603 C 279.832 90.887,282.462 88.639,283.468 87.250 C 283.801 86.792,284.124 86.379,284.188 86.333 C 284.408 86.173,285.667 83.353,285.667 83.020 C 285.667 82.836,285.742 82.640,285.833 82.583 C 285.925 82.527,286.002 82.129,286.005 81.698 C 286.008 81.268,286.121 80.771,286.255 80.593 C 286.606 80.130,286.601 74.114,286.250 73.500 C 286.119 73.271,286.009 72.769,286.006 72.385 C 286.003 72.001,285.925 71.640,285.833 71.583 C 285.742 71.527,285.667 71.296,285.667 71.071 C 285.667 70.846,285.596 70.532,285.511 70.373 C 285.425 70.214,285.144 69.633,284.888 69.083 C 284.136 67.474,282.318 65.255,281.000 64.338 C 280.679 64.115,280.379 63.882,280.333 63.821 C 280.287 63.759,279.837 63.502,279.333 63.249 C 278.829 62.995,278.218 62.686,277.974 62.561 C 277.731 62.436,277.379 62.333,277.192 62.333 C 277.006 62.333,276.812 62.266,276.761 62.184 C 276.674 62.044,276.274 61.967,274.504 61.749 C 274.093 61.698,273.684 61.584,273.595 61.495 C 273.378 61.278,268.551 61.282,268.417 61.500 M192.492 62.437 C 192.153 63.329,192.366 91.604,192.714 91.952 C 193.245 92.482,200.577 92.398,201.015 91.857 C 201.321 91.478,201.333 91.039,201.333 80.148 L 201.333 68.833 205.917 68.833 L 210.500 68.833 210.500 80.016 C 210.500 92.457,210.464 92.051,211.587 92.262 C 213.185 92.561,219.025 92.257,219.348 91.857 C 219.796 91.304,219.852 63.005,219.407 62.370 L 219.148 62.000 205.903 62.000 L 192.658 62.000 192.492 62.437 M227.036 62.197 C 226.699 62.534,226.757 91.468,227.096 91.917 C 227.480 92.426,235.059 92.435,235.430 91.926 C 235.620 91.667,235.667 90.743,235.667 87.226 L 235.667 82.848 238.542 82.768 C 241.976 82.671,243.693 82.528,243.908 82.320 C 243.995 82.236,244.202 82.167,244.368 82.167 C 244.735 82.167,247.333 80.825,247.333 80.636 C 247.333 80.561,247.437 80.500,247.564 80.500 C 248.372 80.500,250.788 77.389,251.375 75.593 C 251.965 73.786,252.039 68.838,251.485 68.258 C 251.401 68.171,251.331 67.984,251.329 67.842 C 251.319 67.223,249.786 65.186,248.750 64.415 C 248.383 64.142,248.046 63.880,248.000 63.832 C 247.797 63.621,245.991 62.833,245.710 62.833 C 245.540 62.833,245.318 62.751,245.217 62.651 C 244.683 62.117,227.544 61.689,227.036 62.197 M296.194 62.217 C 296.087 62.346,295.983 63.672,295.937 65.508 C 295.850 68.916,295.729 70.416,295.498 70.917 C 295.414 71.100,295.264 71.850,295.166 72.583 C 295.067 73.317,294.913 74.367,294.822 74.917 C 294.731 75.467,294.612 76.217,294.558 76.583 C 294.503 76.950,294.355 77.398,294.229 77.579 C 294.103 77.760,294.000 78.149,294.000 78.444 C 294.000 78.739,293.933 79.022,293.852 79.072 C 293.770 79.122,293.668 79.408,293.625 79.707 C 293.533 80.347,292.643 82.879,292.072 84.125 L 291.671 85.000 290.764 85.000 C 289.251 85.000,289.333 84.601,289.333 91.903 C 289.333 99.745,288.795 98.855,293.503 98.795 L 297.056 98.750 297.349 98.250 C 297.596 97.830,297.644 97.306,297.654 94.958 L 297.667 92.167 305.583 92.167 L 313.500 92.167 313.500 95.130 C 313.500 99.180,313.118 98.833,317.581 98.833 L 321.142 98.833 321.488 98.394 C 321.823 97.968,321.833 97.773,321.833 91.967 C 321.833 84.717,321.911 85.007,319.958 85.003 L 318.833 85.000 318.833 73.700 C 318.833 65.133,318.785 62.352,318.633 62.200 C 318.329 61.896,296.447 61.912,296.194 62.217 M334.182 62.559 C 333.990 62.869,333.833 63.209,333.833 63.314 C 333.833 63.419,333.767 63.635,333.686 63.794 C 333.605 63.953,333.463 64.271,333.371 64.500 C 333.278 64.729,333.007 65.390,332.768 65.969 C 332.529 66.548,332.333 67.163,332.333 67.334 C 332.333 67.506,332.258 67.693,332.167 67.750 C 332.075 67.807,332.000 68.032,332.000 68.250 C 332.000 68.468,331.934 68.688,331.853 68.738 C 331.773 68.787,331.581 69.223,331.426 69.706 C 331.184 70.465,330.235 73.080,329.838 74.083 C 329.766 74.267,329.576 74.754,329.417 75.167 C 329.257 75.579,329.066 76.067,328.992 76.250 C 328.764 76.812,328.162 78.538,327.887 79.417 C 327.743 79.875,327.447 80.646,327.230 81.130 C 327.012 81.613,326.833 82.083,326.833 82.173 C 326.833 82.263,326.691 82.655,326.517 83.043 C 326.343 83.432,326.065 84.162,325.900 84.667 C 325.735 85.171,325.540 85.655,325.466 85.742 C 325.393 85.829,325.333 86.058,325.333 86.250 C 325.333 86.442,325.264 86.671,325.178 86.758 C 324.866 87.077,323.782 90.437,323.770 91.121 C 323.752 92.231,323.791 92.244,327.466 92.303 C 332.496 92.385,332.370 92.448,333.327 89.333 C 333.539 88.646,333.814 87.847,333.939 87.558 C 334.064 87.269,334.167 86.913,334.167 86.766 C 334.167 86.338,343.803 86.363,343.930 86.792 C 343.978 86.952,344.126 87.296,344.259 87.555 C 344.391 87.815,344.500 88.172,344.500 88.349 C 344.500 88.526,344.566 88.801,344.646 88.961 C 344.866 89.396,345.167 90.405,345.167 90.708 C 345.167 90.856,345.265 91.075,345.384 91.196 C 345.504 91.318,345.652 91.549,345.713 91.711 C 345.929 92.281,351.709 92.650,353.820 92.228 C 354.410 92.110,354.972 91.293,354.701 90.946 C 354.617 90.838,354.340 90.150,354.086 89.417 C 353.831 88.683,353.401 87.521,353.129 86.833 C 352.858 86.146,352.523 85.246,352.385 84.833 C 352.247 84.421,352.039 83.858,351.924 83.583 C 351.412 82.365,351.333 82.133,351.333 81.837 C 351.333 81.665,351.240 81.423,351.125 81.300 C 351.010 81.176,350.896 80.965,350.870 80.829 C 350.845 80.694,350.760 80.433,350.681 80.250 C 350.602 80.067,350.441 79.579,350.323 79.167 C 350.205 78.754,350.016 78.229,349.902 78.000 C 349.788 77.771,349.534 77.133,349.338 76.583 C 349.141 76.033,348.873 75.371,348.740 75.111 C 348.608 74.852,348.500 74.532,348.500 74.401 C 348.500 74.270,348.435 74.032,348.355 73.873 C 348.276 73.714,348.079 73.208,347.918 72.750 C 347.009 70.156,346.487 68.712,346.352 68.417 C 346.268 68.233,346.037 67.633,345.838 67.083 C 345.639 66.533,345.375 65.858,345.250 65.583 C 345.126 65.308,344.933 64.783,344.822 64.417 C 344.583 63.626,344.374 63.069,344.103 62.500 L 343.904 62.083 339.217 62.039 L 334.530 61.995 334.182 62.559 M357.101 62.264 C 357.046 62.409,357.000 64.091,357.000 66.002 C 357.000 69.984,356.871 69.701,358.657 69.647 C 359.250 69.629,359.764 69.697,359.875 69.808 C 359.980 69.914,360.195 70.000,360.353 70.000 C 360.637 70.000,362.000 71.407,362.000 71.700 C 362.000 71.785,362.180 72.243,362.400 72.719 C 362.620 73.194,362.850 73.752,362.911 73.958 C 362.972 74.165,363.097 74.333,363.188 74.333 C 363.279 74.333,363.303 74.413,363.243 74.511 C 363.182 74.609,363.478 75.209,363.900 75.843 L 364.667 76.996 363.389 78.957 C 362.686 80.035,361.318 82.117,360.349 83.583 C 359.380 85.050,358.488 86.436,358.367 86.663 C 358.246 86.890,358.093 87.115,358.026 87.163 C 357.730 87.376,355.501 91.025,355.505 91.289 C 355.522 92.231,355.625 92.250,360.667 92.250 C 365.123 92.250,365.330 92.236,365.573 91.917 C 365.862 91.539,368.798 86.927,369.075 86.417 C 369.174 86.233,369.375 85.896,369.521 85.667 C 371.163 83.089,372.333 81.150,372.333 81.008 C 372.333 80.912,372.403 80.833,372.489 80.833 C 372.574 80.833,372.692 80.683,372.750 80.500 C 372.808 80.317,372.963 80.167,373.095 80.167 C 373.297 80.167,373.333 81.023,373.333 85.815 C 373.333 93.037,372.783 92.250,377.833 92.250 C 382.884 92.250,382.333 93.039,382.333 85.803 C 382.333 79.313,382.489 78.945,383.947 82.000 C 384.013 82.137,384.127 82.325,384.200 82.417 C 384.497 82.786,385.500 84.332,385.500 84.420 C 385.500 84.472,386.009 85.317,386.632 86.299 C 387.254 87.280,387.980 88.457,388.245 88.914 C 388.510 89.371,388.789 89.821,388.866 89.914 C 388.943 90.007,389.211 90.389,389.461 90.763 C 389.712 91.138,390.049 91.625,390.211 91.847 L 390.506 92.250 394.805 92.299 C 399.884 92.358,400.000 92.334,400.000 91.247 C 400.000 90.769,399.882 90.319,399.683 90.035 C 399.263 89.436,396.340 84.952,395.749 84.000 C 395.493 83.587,395.237 83.212,395.180 83.167 C 395.123 83.121,394.744 82.567,394.337 81.936 C 393.931 81.305,393.483 80.673,393.341 80.532 C 393.199 80.390,393.103 80.231,393.126 80.179 C 393.150 80.126,393.075 79.967,392.960 79.824 C 392.844 79.682,392.608 79.307,392.434 78.991 C 392.261 78.675,391.988 78.267,391.829 78.083 C 391.098 77.243,390.980 76.744,391.414 76.336 C 391.806 75.968,392.002 75.605,393.261 72.917 C 394.590 70.080,395.084 69.667,397.146 69.667 C 399.073 69.667,399.000 69.818,399.000 65.833 C 399.000 63.010,398.961 62.484,398.731 62.255 C 398.195 61.718,391.000 62.114,391.000 62.680 C 391.000 62.764,390.869 62.836,390.708 62.839 C 390.548 62.842,390.294 62.937,390.144 63.051 C 389.048 63.885,388.450 64.459,388.134 64.980 C 387.933 65.312,387.715 65.621,387.651 65.667 C 387.516 65.763,386.632 67.680,386.018 69.208 C 385.204 71.231,384.035 73.054,383.309 73.429 C 382.289 73.957,382.333 74.198,382.333 68.156 C 382.333 64.676,382.270 62.526,382.161 62.322 C 381.902 61.838,374.046 61.822,373.609 62.305 C 373.364 62.576,373.333 63.228,373.333 68.138 C 373.333 73.894,373.338 73.859,372.617 73.474 C 371.767 73.019,369.626 69.417,369.240 67.792 C 369.180 67.540,369.064 67.333,368.982 67.333 C 368.900 67.333,368.833 67.229,368.833 67.102 C 368.833 66.294,366.418 63.172,365.910 63.324 C 365.838 63.346,365.713 63.244,365.632 63.098 C 365.550 62.953,365.337 62.833,365.158 62.833 C 364.980 62.833,364.833 62.762,364.833 62.674 C 364.833 62.587,364.552 62.470,364.208 62.415 C 363.865 62.360,363.453 62.244,363.294 62.158 C 362.754 61.864,357.218 61.958,357.101 62.264 M273.075 68.688 C 273.162 68.768,273.336 68.833,273.461 68.833 C 273.666 68.833,274.610 69.462,275.110 69.931 C 275.531 70.326,276.448 71.959,276.646 72.667 C 276.761 73.079,276.929 73.655,277.017 73.946 C 277.419 75.260,277.369 78.440,276.914 80.583 C 276.425 82.888,274.163 85.500,272.656 85.500 C 272.489 85.500,272.307 85.575,272.250 85.667 C 272.111 85.892,270.415 85.878,269.678 85.645 C 266.876 84.760,265.525 83.097,264.891 79.750 C 264.612 78.276,264.833 73.290,265.188 73.070 C 265.268 73.021,265.332 72.854,265.331 72.698 C 265.323 71.835,267.073 69.490,268.063 69.039 C 268.257 68.950,268.604 68.795,268.833 68.693 C 269.588 68.358,272.711 68.354,273.075 68.688 M240.127 68.986 C 240.286 69.070,240.659 69.228,240.954 69.338 C 242.282 69.830,243.259 71.885,242.677 72.961 C 242.591 73.120,242.480 73.444,242.430 73.681 C 242.226 74.665,241.149 75.445,239.667 75.685 C 239.254 75.751,238.633 75.879,238.286 75.970 C 237.939 76.060,237.208 76.093,236.661 76.044 L 235.667 75.954 235.667 72.394 L 235.667 68.833 237.752 68.833 C 238.899 68.833,239.968 68.902,240.127 68.986 M310.000 76.917 L 310.000 85.000 305.250 85.000 C 302.637 85.000,300.500 84.960,300.500 84.910 C 300.500 84.861,300.649 84.529,300.830 84.173 C 301.273 83.306,302.039 81.009,302.040 80.545 C 302.041 80.340,302.105 80.212,302.183 80.260 C 302.260 80.308,302.366 80.138,302.418 79.882 C 302.469 79.626,302.584 79.186,302.672 78.905 C 302.761 78.623,302.833 78.170,302.833 77.897 C 302.833 77.623,302.904 77.329,302.991 77.242 C 303.264 76.968,303.700 74.267,303.996 71.012 C 304.082 70.057,304.192 69.175,304.238 69.054 C 304.304 68.883,304.960 68.833,307.161 68.833 L 310.000 68.833 310.000 76.917 M33.500 71.232 C 33.500 71.482,33.568 71.644,33.652 71.593 C 33.819 71.489,33.798 71.076,33.616 70.894 C 33.552 70.830,33.500 70.982,33.500 71.232 M339.315 73.375 C 339.404 73.673,339.751 74.667,340.085 75.583 C 340.419 76.500,340.769 77.512,340.862 77.833 C 340.955 78.154,341.099 78.488,341.182 78.575 C 341.879 79.305,341.421 79.500,339.012 79.500 L 336.690 79.500 336.858 78.958 C 336.951 78.660,337.065 78.267,337.112 78.083 C 337.158 77.900,337.296 77.525,337.417 77.250 C 337.538 76.975,337.729 76.412,337.840 76.000 C 337.952 75.587,338.140 75.025,338.259 74.750 C 338.377 74.475,338.573 73.931,338.694 73.542 C 338.958 72.692,339.097 72.655,339.315 73.375 M11.955 80.787 C 12.250 80.824,12.775 80.824,13.121 80.788 C 13.467 80.752,13.225 80.722,12.583 80.721 C 11.942 80.721,11.659 80.750,11.955 80.787 " stroke="none" fill="#fdfdfd" fill-rule="evenodd"></path><path id="path3" d="M109.833 23.777 C 109.696 23.822,109.433 23.924,109.250 24.006 C 109.067 24.087,108.429 24.189,107.833 24.232 C 106.021 24.362,103.568 24.869,103.258 25.176 C 103.171 25.263,102.894 25.333,102.643 25.333 C 102.392 25.333,102.140 25.408,102.083 25.500 C 102.027 25.592,101.834 25.667,101.655 25.667 C 101.475 25.667,101.199 25.737,101.039 25.823 C 100.880 25.910,100.075 26.297,99.250 26.684 C 98.425 27.071,97.712 27.436,97.667 27.494 C 97.621 27.553,97.291 27.737,96.934 27.903 C 95.785 28.438,94.020 29.646,92.713 30.792 C 92.477 30.998,92.233 31.167,92.169 31.167 C 92.020 31.167,88.999 34.048,89.000 34.190 C 89.000 34.248,88.662 34.638,88.250 35.057 C 87.837 35.475,87.500 35.862,87.500 35.916 C 87.500 35.970,87.313 36.217,87.083 36.464 C 86.854 36.711,86.667 37.008,86.667 37.123 C 86.667 37.239,86.604 37.333,86.528 37.333 C 86.452 37.333,86.283 37.540,86.153 37.792 C 86.024 38.044,85.880 38.287,85.834 38.333 C 85.557 38.609,84.666 40.064,84.251 40.917 C 83.983 41.467,83.686 41.972,83.590 42.039 C 83.495 42.106,83.477 42.163,83.551 42.164 C 83.625 42.166,83.580 42.373,83.451 42.625 C 82.899 43.706,82.481 44.743,82.391 45.250 C 82.359 45.433,82.265 45.733,82.181 45.917 C 82.052 46.201,81.853 46.702,81.750 47.000 C 81.734 47.046,81.680 47.196,81.630 47.333 C 81.463 47.793,81.181 48.911,81.084 49.500 C 81.031 49.821,80.861 50.833,80.705 51.750 C 80.397 53.567,80.301 58.825,80.566 59.417 C 80.647 59.600,80.703 59.938,80.688 60.167 C 80.674 60.396,80.742 60.996,80.839 61.500 C 80.937 62.004,81.082 62.754,81.161 63.167 C 81.384 64.323,81.671 65.385,81.812 65.577 C 81.882 65.672,82.028 66.050,82.135 66.417 C 82.666 68.236,82.884 68.833,83.019 68.833 C 83.100 68.833,83.167 68.966,83.167 69.129 C 83.167 69.291,83.543 70.159,84.004 71.058 C 84.736 72.487,85.483 73.653,87.388 76.341 C 88.105 77.353,90.769 80.079,92.108 81.171 C 93.426 82.245,95.414 83.667,95.600 83.667 C 95.665 83.667,95.951 83.842,96.234 84.056 C 96.781 84.468,99.055 85.767,99.124 85.706 C 99.147 85.687,99.559 85.848,100.041 86.065 C 100.523 86.282,101.217 86.553,101.583 86.667 C 101.950 86.781,102.380 86.940,102.539 87.020 C 102.699 87.101,103.002 87.167,103.214 87.167 C 103.426 87.167,103.677 87.244,103.771 87.338 C 103.865 87.432,104.177 87.538,104.465 87.575 C 104.753 87.611,105.235 87.717,105.536 87.810 C 106.821 88.206,107.509 88.333,108.361 88.333 C 108.859 88.333,109.355 88.421,109.462 88.529 C 109.718 88.784,116.233 88.791,116.541 88.536 C 116.656 88.440,117.238 88.322,117.834 88.274 C 118.429 88.226,119.254 88.111,119.667 88.019 C 120.079 87.927,120.642 87.804,120.917 87.745 C 121.192 87.687,121.529 87.596,121.667 87.543 C 121.804 87.490,121.973 87.459,122.042 87.474 C 122.110 87.488,122.167 87.425,122.167 87.333 C 122.167 87.242,122.414 87.167,122.717 87.167 C 123.019 87.167,123.340 87.094,123.429 87.005 C 123.518 86.916,123.739 86.820,123.920 86.792 C 124.102 86.763,124.359 86.672,124.493 86.589 C 124.627 86.506,124.925 86.417,125.157 86.393 C 125.389 86.368,125.605 86.269,125.636 86.174 C 125.668 86.078,125.805 86.000,125.941 86.000 C 126.175 86.000,127.991 85.185,128.167 85.001 C 128.212 84.953,128.531 84.766,128.875 84.586 C 129.219 84.405,129.500 84.200,129.500 84.129 C 129.500 84.058,129.606 84.000,129.736 84.000 C 129.866 84.000,129.999 83.921,130.031 83.824 C 130.063 83.728,130.203 83.632,130.342 83.611 C 130.622 83.570,131.719 82.836,131.806 82.631 C 131.836 82.559,131.941 82.500,132.038 82.500 C 132.948 82.500,139.018 76.225,140.136 74.129 C 140.290 73.840,140.548 73.453,140.708 73.270 C 140.978 72.962,141.024 72.845,140.986 72.560 C 140.978 72.502,141.034 72.408,141.111 72.352 C 141.296 72.217,141.573 71.745,142.006 70.833 C 142.202 70.421,142.618 69.558,142.932 68.917 C 143.245 68.275,143.501 67.631,143.501 67.486 C 143.500 67.341,143.552 67.170,143.615 67.107 C 143.679 67.043,143.756 66.829,143.786 66.630 C 143.816 66.431,143.952 66.047,144.087 65.775 C 144.223 65.504,144.333 65.084,144.333 64.841 C 144.333 64.598,144.401 64.329,144.483 64.242 C 144.652 64.062,144.813 63.089,144.935 61.500 C 144.981 60.904,145.126 60.183,145.257 59.897 C 145.562 59.231,145.533 52.691,145.223 52.317 C 145.117 52.189,144.992 51.558,144.946 50.917 C 144.838 49.414,144.615 48.176,144.371 47.730 C 144.265 47.536,144.229 47.327,144.290 47.265 C 144.352 47.204,144.283 46.913,144.138 46.618 C 143.992 46.324,143.777 45.746,143.660 45.333 C 143.448 44.589,141.395 40.160,141.187 40.000 C 141.128 39.954,140.906 39.574,140.695 39.154 C 140.360 38.490,140.106 38.126,139.337 37.215 C 139.243 37.105,139.167 36.934,139.167 36.835 C 139.167 36.737,139.054 36.613,138.917 36.560 C 138.779 36.508,138.667 36.398,138.667 36.317 C 138.667 36.147,138.158 35.509,137.375 34.696 C 137.077 34.386,136.833 34.082,136.833 34.018 C 136.833 33.955,136.440 33.548,135.958 33.114 C 135.477 32.679,134.633 31.915,134.083 31.416 C 133.533 30.916,132.990 30.506,132.875 30.504 C 132.760 30.502,132.667 30.440,132.667 30.366 C 132.667 30.229,130.766 28.833,130.580 28.833 C 130.524 28.833,130.220 28.637,129.906 28.397 C 129.591 28.157,129.333 28.018,129.333 28.089 C 129.333 28.160,129.202 28.108,129.042 27.972 C 128.655 27.646,126.421 26.500,126.172 26.500 C 126.064 26.500,125.880 26.404,125.762 26.286 C 125.645 26.169,124.994 25.897,124.316 25.682 C 123.638 25.468,122.971 25.252,122.833 25.202 C 122.696 25.153,122.546 25.099,122.500 25.083 C 122.454 25.067,122.282 24.996,122.118 24.923 C 121.953 24.851,121.775 24.836,121.721 24.890 C 121.667 24.944,121.466 24.904,121.273 24.801 C 121.081 24.698,120.622 24.580,120.254 24.538 C 119.885 24.497,119.457 24.396,119.303 24.315 C 119.148 24.233,118.461 24.167,117.775 24.167 C 116.925 24.167,116.506 24.100,116.458 23.958 C 116.389 23.750,110.425 23.588,109.833 23.777 M131.500 56.250 L 131.500 76.000 126.917 76.000 L 122.333 76.000 122.333 56.250 L 122.333 36.500 126.917 36.500 L 131.500 36.500 131.500 56.250 M117.500 63.667 L 117.500 76.000 112.917 76.000 L 108.333 76.000 108.333 63.667 L 108.333 51.333 112.917 51.333 L 117.500 51.333 117.500 63.667 M103.833 70.833 L 103.833 76.000 99.250 76.000 L 94.667 76.000 94.667 70.833 L 94.667 65.667 99.250 65.667 L 103.833 65.667 103.833 70.833 " stroke="none" fill="#3ed675" fill-rule="evenodd"></path></g></svg>